<svg width="257" height="157" fill="none" xmlns="http://www.w3.org/2000/svg"><g clip-path="url(#clip0)"><path d="M233.018 111.089a111.211 111.211 0 00-10.85-47.905 111.076 111.076 0 00-30.421-38.539 110.903 110.903 0 00-44.044-21.637 110.827 110.827 0 00-49.058-.507 110.9 110.9 0 00-44.481 20.723 111.071 111.071 0 00-31.209 37.901 111.218 111.218 0 00-1.984 95.792h202.144a110.38 110.38 0 009.903-45.828z" fill="#E6F1F5"/><path d="M12.483 156.917h216.374M0 156.917h6.935M234.405 156.917h6.936" stroke="#2C3338" stroke-linecap="round" stroke-linejoin="round"/><path d="M130.131 137.835H110.99v11.499h19.141v-11.499z" fill="#fff"/><path d="M130.131 137.835H110.99v11.499h19.141v-11.499z" stroke="#2C3338" stroke-linecap="round" stroke-linejoin="round"/><path d="M145.444 157H95.678c0-2.033.806-3.983 2.242-5.421a7.653 7.653 0 015.414-2.245h34.453a7.677 7.677 0 015.406 2.253 7.706 7.706 0 012.251 5.413z" fill="#fff" stroke="#2C3338" stroke-linecap="round" stroke-linejoin="round"/><path d="M172.241 49.679H68.991a9.565 9.565 0 00-6.767 2.806 9.589 9.589 0 00-2.803 6.776v63.243h122.39V59.261A9.616 9.616 0 00179 52.493a9.592 9.592 0 00-6.759-2.814z" fill="#D48FC8"/><path fill-rule="evenodd" clip-rule="evenodd" d="M113.098 90.951c-.982 0-1.78-.801-1.78-1.787 0-.986.798-1.787 1.78-1.787s1.78.801 1.78 1.787c0 .986-.798 1.787-1.78 1.787z" fill="#fff"/><path fill-rule="evenodd" clip-rule="evenodd" d="M113.066 88.619a.53.53 0 000 1.058.528.528 0 000-1.058zM114.57 89.96h7.41v-1.614h-7.41v1.613z" fill="#fff"/><path fill-rule="evenodd" clip-rule="evenodd" d="M120.169 94.003l-.995-1.713.545-.304c.838-.466 1.426-1.439 1.541-2.542l.009-.339-.009-.339c-.115-1.103-.703-2.075-1.541-2.541l-.545-.304.995-1.713.523.293c.746.417 1.378 1.064 1.828 1.868.455.813.704 1.755.721 2.726v.02a5.799 5.799 0 01-.721 2.726c-.45.805-1.082 1.451-1.828 1.869l-.523.293z" fill="#fff"/><path fill-rule="evenodd" clip-rule="evenodd" d="M121.838 89.483c-.132 1.346-.853 2.48-1.854 3.038l.378.653c1.3-.728 2.206-2.272 2.236-4.07-.03-1.797-.936-3.34-2.236-4.069l-.378.653c1.001.558 1.722 1.692 1.854 3.038l.01.379-.01.378zM127.872 90.257c-.37 3.667-2.38 6.756-5.178 8.276l1.058 1.776c3.628-1.981 6.158-6.187 6.243-11.082-.085-4.895-2.615-9.1-6.243-11.082l-1.058 1.776c2.798 1.52 4.808 4.61 5.178 8.276l.029 1.03-.029 1.03z" fill="#fff"/><path fill-rule="evenodd" clip-rule="evenodd" d="M121.939 97.184l-1.007-1.734.259-.144c.894-.498 1.675-1.261 2.259-2.208a7.753 7.753 0 001.091-3.29l.02-.696-.02-.695a7.752 7.752 0 00-1.091-3.29c-.584-.947-1.365-1.711-2.259-2.21l-.259-.143 1.007-1.733.248.139c1.268.71 2.347 1.814 3.118 3.193.789 1.409 1.221 3.046 1.249 4.734v.01c-.028 1.688-.46 3.325-1.249 4.734-.771 1.38-1.85 2.484-3.118 3.194l-.248.139z" fill="#fff"/><path fill-rule="evenodd" clip-rule="evenodd" d="M121.747 95.698l.423.73c1.07-.66 1.983-1.632 2.652-2.827.741-1.324 1.147-2.864 1.174-4.455-.027-1.59-.433-3.13-1.174-4.454-.669-1.195-1.582-2.167-2.652-2.827l-.423.73a6.943 6.943 0 012.215 2.26 8.332 8.332 0 011.176 3.55l.002.02.02.721-.022.743a8.333 8.333 0 01-1.176 3.55 6.942 6.942 0 01-2.215 2.26z" fill="#fff"/><path fill-rule="evenodd" clip-rule="evenodd" d="M124.838 89.844c-.25 2.541-1.608 4.682-3.499 5.735l.715 1.23c2.452-1.372 4.162-4.287 4.219-7.678-.057-3.392-1.767-6.306-4.219-7.68l-.715 1.232c1.891 1.053 3.249 3.194 3.499 5.734l.02.714-.02.713z" fill="#fff"/><path d="M172.241 49.679H68.991a9.565 9.565 0 00-6.767 2.806 9.589 9.589 0 00-2.803 6.776v63.243h122.39V59.261A9.616 9.616 0 00179 52.493a9.592 9.592 0 00-6.759-2.814v0z" stroke="#2C3338" stroke-linecap="round" stroke-linejoin="round"/><path d="M172.241 137.835a9.564 9.564 0 006.767-2.806 9.589 9.589 0 002.803-6.776v-5.75h-122.5v5.75a9.56 9.56 0 005.98 8.893 9.533 9.533 0 003.7.689h103.25z" fill="#fff" stroke="#2C3338" stroke-linecap="round" stroke-linejoin="round"/><path d="M120.561 131.752a1.582 1.582 0 000-3.166 1.582 1.582 0 000 3.166z" stroke="#2C3338" stroke-linecap="round" stroke-linejoin="round"/><rect x="177.754" y="153.215" width="21.167" height="3.734" rx="1" fill="#98C6D9" stroke="#2C3338"/><path fill="#98C6D9" stroke="#2C3338" d="M186.25 135.396h3.594v17.962h-3.594z"/><path d="M173.672 90a4 4 0 014-4h20.748a4 4 0 014 4v31.923h-28.748V90z" fill="#fff" stroke="#2C3338"/><mask id="a" maskUnits="userSpaceOnUse" x="173" y="85" width="30" height="38"><path d="M173.672 90a4 4 0 014-4h20.748a4 4 0 014 4v31.923h-28.748V90z" fill="#fff" stroke="#2C3338"/></mask><g mask="url(#a)" stroke="#2C3338"><path transform="rotate(-44.991 226.087 -142.612)" d="M0-.5h48.356"/><path transform="rotate(-44.991 206.947 -134.68)" d="M0-.5h48.356"/><path transform="rotate(-135.009 123.437 22.976)" d="M0-.5h51.527"/><path transform="rotate(-44.991 233.74 -145.787)" d="M0-.5h48.356"/><path transform="rotate(-135.009 124.75 19.805)" d="M0-.5h51.527"/><path transform="rotate(-44.991 241.398 -148.96)" d="M0-.5h48.356"/><path transform="rotate(-44.991 245.226 -150.545)" d="M0-.5h48.356"/><path transform="rotate(-44.991 249.054 -152.131) skewX(.019)" d="M0-.5h48.356"/><path transform="rotate(-44.991 252.883 -153.72) skewX(.019)" d="M0-.5h48.356"/><path transform="rotate(-44.991 256.71 -155.306)" d="M0-.5h48.356"/><path transform="rotate(-44.991 218.43 -139.44)" d="M0-.5h48.356"/><path transform="rotate(-44.991 199.29 -131.506)" d="M0-.5h48.356"/><path transform="rotate(-135.009 122.122 26.147)" d="M0-.5h51.527"/><path transform="rotate(-44.991 229.915 -144.198)" d="M0-.5h48.356"/><path transform="rotate(-44.991 210.775 -136.266) skewX(.019)" d="M0-.5h48.356"/><path transform="rotate(-135.009 124.093 21.39)" d="M0-.5h51.527"/><path transform="rotate(-44.991 237.57 -147.373)" d="M0-.5h48.356"/><path transform="rotate(-135.009 125.408 18.22)" d="M0-.5h51.527"/><path transform="rotate(-135.009 126.065 16.635)" d="M0-.5h51.527"/><path transform="rotate(-135.009 128.693 10.295)" d="M0-.5h51.527"/><path transform="rotate(-135.009 126.722 15.05)" d="M0-.5h51.527"/><path transform="rotate(-135.009 129.35 8.71)" d="M0-.5h51.527"/><path transform="rotate(-135.009 127.379 13.464)" d="M0-.5h51.527"/><path transform="rotate(-135.009 130.007 7.124)" d="M0-.5h51.527"/><path transform="rotate(-135.009 128.036 11.88)" d="M0-.5h51.527"/><path transform="rotate(-135.009 130.665 5.538)" d="M0-.5h51.527"/><path transform="rotate(-44.991 222.259 -141.025) skewX(.019)" d="M0-.5h48.356"/><path transform="rotate(-44.991 203.118 -133.092)" d="M0-.5h48.356"/><path transform="rotate(-135.009 122.78 24.561)" d="M0-.5h51.527"/><path transform="rotate(-44.991 214.603 -137.853)" d="M0-.5h48.356"/><path transform="rotate(-44.991 195.462 -129.92)" d="M0-.5h48.356"/><path transform="rotate(-135.009 121.465 27.731)" d="M0-.5h51.527"/><path transform="rotate(-135.009 120.808 29.317)" d="M0-.5h51.527"/></g><path d="M173.672 124.619h28.748v13.961a4 4 0 01-4 4h-20.748a4 4 0 01-4-4v-13.961z" fill="#98C6D9" stroke="#2C3338"/><rect x="186.25" y="131.803" width="3.594" height="3.592" rx="1" fill="#fff" stroke="#2C3338"/><rect x="172.774" y="121.024" width="30.545" height="3.592" rx="1" fill="#98C6D9" stroke="#2C3338"/><path d="M55.332 26.871c-.098-.431-.49-.863-.883-.97l-3.236-1.295c-.392-.108-.392-.323 0-.539l3.236-1.294c.392 0 .785-.431.883-.863l1.176-3.559c.098-.431.295-.431.49 0l1.177 3.56c.099.43.49.862.883.97l3.236 1.294c.392.108.392.323 0 .54L58.96 25.9c-.392.107-.785.539-.883.97l-1.176 3.559c-.098.431-.295.431-.49 0l-1.08-3.559z" fill="#399ce3"/><path d="M31.969 112.615c-.5.166-1 .666-1 1l-1.167 3.165c-.167.5-.5.5-.667 0l-1.166-3.165c-.167-.5-.667-1-1-1l-3.167-1.166c-.5-.167-.5-.5 0-.667l3.167-1.166c.5-.167 1-.667 1-1l1.166-3.165c.167-.5.5-.5.667 0l1.167 3.165c.166.5.666 1 1 1l3.166 1.166c.5.167.5.5 0 .667l-3.166 1.166z" fill="#044b7a"/><path d="M37.696 18.73a1.376 1.376 0 00-.493-.616l-.987-.493c-.197-.123-.197-.247 0-.247l.987-.493c.197-.123.394-.37.493-.616l.395-1.234c.099-.246.197-.246.197 0l.395 1.234c.099.246.296.493.493.616l.987.493c.198.124.198.247 0 .247l-.987.493c-.197.123-.394.37-.493.617l-.395 1.233c-.098.246-.197.246-.197 0l-.395-1.233z" fill="#F0C930"/><path d="M187.765 59.87v18.028M148.105 96.689l11.493 2.872M213.906 99.561l11.492-2.872M154.305 70.436l1.864 1.863m8.526 8.523L158.07 74.2M219.945 70.475l-1.864 1.863m-8.526 8.523l6.625-6.623" stroke="#F0C930" stroke-linecap="round"/></g><defs><clipPath id="clip0"><path fill="#fff" d="M0 0h257v157H0z"/></clipPath></defs></svg>